<svg width="228" height="48" viewBox="0 0 228 48" fill="none" xmlns="http://www.w3.org/2000/svg">
<g clip-path="url(#clip0_3_88)">
<path d="M46 13.3333H30C28.5272 13.3333 27.3333 14.5272 27.3333 16V32C27.3333 33.4728 28.5272 34.6667 30 34.6667H46C47.4728 34.6667 48.6667 33.4728 48.6667 32V16C48.6667 14.5272 47.4728 13.3333 46 13.3333Z" stroke="#62618F" stroke-width="2" stroke-linecap="round" stroke-linejoin="round"/>
<path d="M32.6667 29.3333V29.3467" stroke="#62618F" stroke-width="2" stroke-linecap="round" stroke-linejoin="round"/>
<path d="M32.6667 24V24.0133" stroke="#62618F" stroke-width="2" stroke-linecap="round" stroke-linejoin="round"/>
<path d="M32.6667 18.6667V18.68" stroke="#62618F" stroke-width="2" stroke-linecap="round" stroke-linejoin="round"/>
<path d="M43.3333 29.3333V29.3467" stroke="#62618F" stroke-width="2" stroke-linecap="round" stroke-linejoin="round"/>
<path d="M43.3333 24V24.0133" stroke="#62618F" stroke-width="2" stroke-linecap="round" stroke-linejoin="round"/>
<path d="M43.3333 18.6667V18.68" stroke="#62618F" stroke-width="2" stroke-linecap="round" stroke-linejoin="round"/>
<path d="M38 18.6667V18.68" stroke="#62618F" stroke-width="2" stroke-linecap="round" stroke-linejoin="round"/>
<path d="M38 29.3333V29.3467" stroke="#62618F" stroke-width="2" stroke-linecap="round" stroke-linejoin="round"/>
</g>
<path d="M70.804 26.218H66.464L65.638 28.5H64.266L67.92 18.812H69.362L73.002 28.5H71.63L70.804 26.218ZM70.44 25.224L68.634 20.24L66.828 25.224H70.44ZM78.5335 20.716C79.2149 20.716 79.8215 20.8747 80.3535 21.192C80.8855 21.5093 81.3009 21.9667 81.5995 22.564C81.9075 23.1613 82.0615 23.8613 82.0615 24.664C82.0615 25.4667 81.9075 26.1667 81.5995 26.764C81.3009 27.352 80.8855 27.8047 80.3535 28.122C79.8215 28.4393 79.2149 28.598 78.5335 28.598C77.7869 28.598 77.1522 28.4113 76.6295 28.038C76.1162 27.6553 75.7615 27.156 75.5655 26.54V32.14H74.2915V20.814H75.5655V22.774C75.7615 22.158 76.1162 21.6633 76.6295 21.29C77.1522 20.9073 77.7869 20.716 78.5335 20.716ZM78.1695 21.85C77.6749 21.85 77.2269 21.9667 76.8255 22.2C76.4242 22.424 76.1115 22.7507 75.8875 23.18C75.6635 23.6093 75.5515 24.104 75.5515 24.664C75.5515 25.224 75.6635 25.7187 75.8875 26.148C76.1115 26.568 76.4242 26.8947 76.8255 27.128C77.2269 27.3613 77.6749 27.478 78.1695 27.478C78.9629 27.478 79.5929 27.2307 80.0595 26.736C80.5355 26.232 80.7735 25.5413 80.7735 24.664C80.7735 23.7867 80.5355 23.1007 80.0595 22.606C79.5929 22.102 78.9629 21.85 78.1695 21.85ZM87.9671 20.716C88.6485 20.716 89.2551 20.8747 89.7871 21.192C90.3191 21.5093 90.7345 21.9667 91.0331 22.564C91.3411 23.1613 91.4951 23.8613 91.4951 24.664C91.4951 25.4667 91.3411 26.1667 91.0331 26.764C90.7345 27.352 90.3191 27.8047 89.7871 28.122C89.2551 28.4393 88.6485 28.598 87.9671 28.598C87.2205 28.598 86.5858 28.4113 86.0631 28.038C85.5498 27.6553 85.1951 27.156 84.9991 26.54V32.14H83.7251V20.814H84.9991V22.774C85.1951 22.158 85.5498 21.6633 86.0631 21.29C86.5858 20.9073 87.2205 20.716 87.9671 20.716ZM87.6031 21.85C87.1085 21.85 86.6605 21.9667 86.2591 22.2C85.8578 22.424 85.5451 22.7507 85.3211 23.18C85.0971 23.6093 84.9851 24.104 84.9851 24.664C84.9851 25.224 85.0971 25.7187 85.3211 26.148C85.5451 26.568 85.8578 26.8947 86.2591 27.128C86.6605 27.3613 87.1085 27.478 87.6031 27.478C88.3965 27.478 89.0265 27.2307 89.4931 26.736C89.9691 26.232 90.2071 25.5413 90.2071 24.664C90.2071 23.7867 89.9691 23.1007 89.4931 22.606C89.0265 22.102 88.3965 21.85 87.6031 21.85ZM95.5667 20.716C96.4347 20.716 97.1301 20.9447 97.6527 21.402C98.1847 21.85 98.5067 22.4567 98.6187 23.222H97.4007C97.3447 22.7647 97.1534 22.3913 96.8267 22.102C96.5094 21.8033 96.0801 21.654 95.5387 21.654C95.0814 21.654 94.7221 21.766 94.4607 21.99C94.2087 22.2047 94.0827 22.4987 94.0827 22.872C94.0827 23.152 94.1667 23.3807 94.3347 23.558C94.5121 23.726 94.7267 23.8567 94.9787 23.95C95.2401 24.034 95.5947 24.1273 96.0427 24.23C96.6121 24.3607 97.0694 24.496 97.4147 24.636C97.7694 24.7667 98.0681 24.9813 98.3107 25.28C98.5627 25.5787 98.6887 25.98 98.6887 26.484C98.6887 27.1093 98.4507 27.618 97.9747 28.01C97.5081 28.402 96.8827 28.598 96.0987 28.598C95.1841 28.598 94.4374 28.3787 93.8587 27.94C93.2801 27.5013 92.9394 26.89 92.8367 26.106H94.0687C94.1154 26.5727 94.3161 26.9507 94.6707 27.24C95.0347 27.5293 95.5107 27.674 96.0987 27.674C96.5374 27.674 96.8781 27.562 97.1207 27.338C97.3727 27.114 97.4987 26.82 97.4987 26.456C97.4987 26.1573 97.4101 25.9193 97.2327 25.742C97.0554 25.5647 96.8361 25.4293 96.5747 25.336C96.3134 25.2427 95.9541 25.1447 95.4967 25.042C94.9274 24.9113 94.4701 24.7807 94.1247 24.65C93.7887 24.5193 93.4994 24.314 93.2567 24.034C93.0234 23.7447 92.9067 23.3573 92.9067 22.872C92.9067 22.228 93.1447 21.71 93.6207 21.318C94.0967 20.9167 94.7454 20.716 95.5667 20.716Z" fill="#62618F"/>
<defs>
<clipPath id="clip0_3_88">
<rect width="32" height="32" fill="white" transform="translate(22 8)"/>
</clipPath>
</defs>
</svg>
