<svg width="222" height="48" viewBox="0 0 222 48" fill="none" xmlns="http://www.w3.org/2000/svg">
<g clip-path="url(#clip0_3_75)">
<path d="M41.3333 20H28C26.5272 20 25.3333 21.1939 25.3333 22.6667V30.6667C25.3333 32.1394 26.5272 33.3333 28 33.3333H41.3333C42.8061 33.3333 44 32.1394 44 30.6667V22.6667C44 21.1939 42.8061 20 41.3333 20Z" stroke="#1A194D" stroke-width="2" stroke-linecap="round" stroke-linejoin="round"/>
<path d="M34.6667 29.3333C36.1394 29.3333 37.3333 28.1394 37.3333 26.6667C37.3333 25.1939 36.1394 24 34.6667 24C33.1939 24 32 25.1939 32 26.6667C32 28.1394 33.1939 29.3333 34.6667 29.3333Z" stroke="#1A194D" stroke-width="2" stroke-linecap="round" stroke-linejoin="round"/>
<path d="M38.6667 20V17.3333C38.6667 16.6261 38.3857 15.9478 37.8856 15.4477C37.3855 14.9476 36.7072 14.6667 36 14.6667H22.6667C21.9594 14.6667 21.2811 14.9476 20.781 15.4477C20.281 15.9478 20 16.6261 20 17.3333V25.3333C20 26.0406 20.281 26.7189 20.781 27.219C21.2811 27.7191 21.9594 28 22.6667 28H25.3333" stroke="#1A194D" stroke-width="2" stroke-linecap="round" stroke-linejoin="round"/>
</g>
<path d="M63.838 23.39C64.4447 23.5207 64.9347 23.81 65.308 24.258C65.6907 24.706 65.882 25.2333 65.882 25.84C65.882 26.6427 65.6067 27.2867 65.056 27.772C64.5147 28.2573 63.726 28.5 62.69 28.5H59.022V18.63H62.634C63.6233 18.63 64.3747 18.8493 64.888 19.288C65.4013 19.7267 65.658 20.3287 65.658 21.094C65.658 21.7287 65.4853 22.242 65.14 22.634C64.804 23.026 64.37 23.278 63.838 23.39ZM60.296 22.956H62.424C63.0493 22.956 63.5253 22.8113 63.852 22.522C64.188 22.2327 64.356 21.8267 64.356 21.304C64.356 20.8 64.1927 20.4033 63.866 20.114C63.5393 19.8247 63.04 19.68 62.368 19.68H60.296V22.956ZM62.452 27.436C63.124 27.436 63.642 27.282 64.006 26.974C64.3793 26.666 64.566 26.232 64.566 25.672C64.566 25.1213 64.3747 24.692 63.992 24.384C63.6187 24.0667 63.096 23.908 62.424 23.908H60.296V27.436H62.452ZM67.2472 18.56C67.2472 18.3267 67.3266 18.14 67.4852 18C67.6439 17.8507 67.8539 17.776 68.1152 17.776C68.3766 17.776 68.5866 17.8507 68.7452 18C68.9039 18.14 68.9832 18.3267 68.9832 18.56C68.9832 18.7933 68.9039 18.9847 68.7452 19.134C68.5866 19.274 68.3766 19.344 68.1152 19.344C67.8539 19.344 67.6439 19.274 67.4852 19.134C67.3266 18.9847 67.2472 18.7933 67.2472 18.56ZM68.7452 20.814V28.5H67.4712V20.814H68.7452ZM72.0675 18.14V28.5H70.7935V18.14H72.0675ZM75.3898 18.14V28.5H74.1158V18.14H75.3898ZM77.214 18.56C77.214 18.3267 77.2933 18.14 77.452 18C77.6107 17.8507 77.8207 17.776 78.082 17.776C78.3433 17.776 78.5533 17.8507 78.712 18C78.8707 18.14 78.95 18.3267 78.95 18.56C78.95 18.7933 78.8707 18.9847 78.712 19.134C78.5533 19.274 78.3433 19.344 78.082 19.344C77.8207 19.344 77.6107 19.274 77.452 19.134C77.2933 18.9847 77.214 18.7933 77.214 18.56ZM78.712 20.814V28.5H77.438V20.814H78.712ZM84.8063 20.688C85.7023 20.688 86.4256 20.9773 86.9763 21.556C87.5269 22.1253 87.8023 22.9513 87.8023 24.034V28.5H86.5283V24.146C86.5283 23.3807 86.3323 22.7927 85.9403 22.382C85.5483 21.9713 85.0163 21.766 84.3443 21.766C83.6443 21.766 83.0843 21.9947 82.6643 22.452C82.2443 22.9 82.0343 23.558 82.0343 24.426V28.5H80.7603V20.814H82.0343V22.634C82.2303 22.0087 82.5756 21.528 83.0703 21.192C83.5743 20.856 84.1529 20.688 84.8063 20.688ZM92.9064 20.716C93.653 20.716 94.283 20.9027 94.7964 21.276C95.319 21.6493 95.683 22.1487 95.8884 22.774V20.814H97.1624V28.626C97.1624 29.3353 97.013 29.9653 96.7144 30.516C96.4157 31.0667 95.9957 31.496 95.4544 31.804C94.913 32.112 94.283 32.266 93.5644 32.266C92.5284 32.266 91.6837 32.014 91.0304 31.51C90.377 31.0153 89.9617 30.3433 89.7844 29.494H91.0444C91.1937 30.0073 91.4737 30.4087 91.8844 30.698C92.3044 30.9967 92.841 31.146 93.4944 31.146C94.185 31.146 94.7544 30.922 95.2024 30.474C95.6597 30.0353 95.8884 29.4193 95.8884 28.626V26.54C95.683 27.1653 95.319 27.6647 94.7964 28.038C94.283 28.4113 93.653 28.598 92.9064 28.598C92.225 28.598 91.6184 28.4393 91.0864 28.122C90.5544 27.8047 90.1344 27.352 89.8264 26.764C89.5277 26.1667 89.3784 25.4667 89.3784 24.664C89.3784 23.8613 89.5277 23.1613 89.8264 22.564C90.1344 21.9667 90.5544 21.5093 91.0864 21.192C91.6184 20.8747 92.225 20.716 92.9064 20.716ZM93.2704 21.85C92.4864 21.85 91.8564 22.102 91.3804 22.606C90.9137 23.1007 90.6804 23.7867 90.6804 24.664C90.6804 25.5413 90.9137 26.232 91.3804 26.736C91.8564 27.2307 92.4864 27.478 93.2704 27.478C93.7744 27.478 94.2224 27.3613 94.6144 27.128C95.0157 26.8947 95.3284 26.568 95.5524 26.148C95.7764 25.7187 95.8884 25.224 95.8884 24.664C95.8884 24.104 95.7764 23.6093 95.5524 23.18C95.3284 22.7507 95.0157 22.424 94.6144 22.2C94.2224 21.9667 93.7744 21.85 93.2704 21.85Z" fill="#1A194D"/>
<defs>
<clipPath id="clip0_3_75">
<rect width="32" height="32" fill="white" transform="translate(16 8)"/>
</clipPath>
</defs>
</svg>
