<svg width="222" height="48" viewBox="0 0 222 48" fill="none" xmlns="http://www.w3.org/2000/svg">
<g clip-path="url(#clip0_3_13)">
<path d="M26.6667 18.6667H37.3333V29.3333H26.6667V18.6667Z" stroke="#62618F" stroke-width="2" stroke-linecap="round" stroke-linejoin="round"/>
<path d="M40 13.3333H24C22.5272 13.3333 21.3333 14.5272 21.3333 16V32C21.3333 33.4728 22.5272 34.6667 24 34.6667H40C41.4728 34.6667 42.6667 33.4728 42.6667 32V16C42.6667 14.5272 41.4728 13.3333 40 13.3333Z" stroke="#62618F" stroke-width="2" stroke-linecap="round" stroke-linejoin="round"/>
</g>
<path d="M63.502 18.532C64.65 18.532 65.6113 18.8167 66.386 19.386C67.17 19.9553 67.6973 20.73 67.968 21.71H66.624C66.3907 21.1127 65.9987 20.632 65.448 20.268C64.9067 19.904 64.2627 19.722 63.516 19.722C62.844 19.722 62.242 19.8807 61.71 20.198C61.178 20.506 60.758 20.9493 60.45 21.528C60.1513 22.1067 60.002 22.788 60.002 23.572C60.002 24.3747 60.156 25.07 60.464 25.658C60.772 26.2367 61.1967 26.6847 61.738 27.002C62.2887 27.31 62.9187 27.464 63.628 27.464C64.2347 27.464 64.79 27.3333 65.294 27.072C65.798 26.8107 66.2087 26.4327 66.526 25.938C66.8527 25.434 67.0487 24.846 67.114 24.174H63.236V23.222H68.192V24.398C68.108 25.182 67.8653 25.8913 67.464 26.526C67.0627 27.1607 66.5213 27.6647 65.84 28.038C65.1587 28.4113 64.384 28.598 63.516 28.598C62.564 28.598 61.724 28.388 60.996 27.968C60.268 27.5387 59.6987 26.946 59.288 26.19C58.8867 25.4247 58.686 24.552 58.686 23.572C58.686 22.592 58.8867 21.724 59.288 20.968C59.6987 20.2027 60.268 19.6053 60.996 19.176C61.724 18.7467 62.5593 18.532 63.502 18.532ZM76.9885 24.23C76.9885 24.5007 76.9698 24.734 76.9325 24.93H70.7865C70.8145 25.8073 71.0618 26.4653 71.5285 26.904C72.0045 27.3427 72.5832 27.562 73.2645 27.562C73.8805 27.562 74.3938 27.408 74.8045 27.1C75.2245 26.7827 75.4812 26.3627 75.5745 25.84H76.9325C76.8392 26.372 76.6292 26.848 76.3025 27.268C75.9852 27.688 75.5698 28.0147 75.0565 28.248C74.5432 28.4813 73.9645 28.598 73.3205 28.598C72.5832 28.598 71.9298 28.4393 71.3605 28.122C70.7912 27.8047 70.3432 27.352 70.0165 26.764C69.6992 26.1667 69.5405 25.4667 69.5405 24.664C69.5405 23.8613 69.6992 23.1613 70.0165 22.564C70.3432 21.9667 70.7912 21.5093 71.3605 21.192C71.9298 20.8747 72.5832 20.716 73.3205 20.716C74.0672 20.716 74.7158 20.8747 75.2665 21.192C75.8265 21.5093 76.2512 21.934 76.5405 22.466C76.8392 22.998 76.9885 23.586 76.9885 24.23ZM75.7005 24.314C75.7285 23.7447 75.6352 23.2687 75.4205 22.886C75.2058 22.5033 74.9118 22.2187 74.5385 22.032C74.1652 21.8453 73.7592 21.752 73.3205 21.752C72.6205 21.752 72.0325 21.9713 71.5565 22.41C71.0805 22.8393 70.8238 23.474 70.7865 24.314H75.7005ZM82.7008 20.688C83.5968 20.688 84.3201 20.9773 84.8708 21.556C85.4215 22.1253 85.6968 22.9513 85.6968 24.034V28.5H84.4228V24.146C84.4228 23.3807 84.2268 22.7927 83.8348 22.382C83.4428 21.9713 82.9108 21.766 82.2388 21.766C81.5388 21.766 80.9788 21.9947 80.5588 22.452C80.1388 22.9 79.9288 23.558 79.9288 24.426V28.5H78.6548V20.814H79.9288V22.634C80.1248 22.0087 80.4701 21.528 80.9648 21.192C81.4688 20.856 82.0475 20.688 82.7008 20.688ZM94.7209 24.23C94.7209 24.5007 94.7022 24.734 94.6649 24.93H88.5189C88.5469 25.8073 88.7942 26.4653 89.2609 26.904C89.7369 27.3427 90.3156 27.562 90.9969 27.562C91.6129 27.562 92.1262 27.408 92.5369 27.1C92.9569 26.7827 93.2136 26.3627 93.3069 25.84H94.6649C94.5716 26.372 94.3616 26.848 94.0349 27.268C93.7176 27.688 93.3022 28.0147 92.7889 28.248C92.2756 28.4813 91.6969 28.598 91.0529 28.598C90.3156 28.598 89.6622 28.4393 89.0929 28.122C88.5236 27.8047 88.0756 27.352 87.7489 26.764C87.4316 26.1667 87.2729 25.4667 87.2729 24.664C87.2729 23.8613 87.4316 23.1613 87.7489 22.564C88.0756 21.9667 88.5236 21.5093 89.0929 21.192C89.6622 20.8747 90.3156 20.716 91.0529 20.716C91.7996 20.716 92.4482 20.8747 92.9989 21.192C93.5589 21.5093 93.9836 21.934 94.2729 22.466C94.5716 22.998 94.7209 23.586 94.7209 24.23ZM93.4329 24.314C93.4609 23.7447 93.3676 23.2687 93.1529 22.886C92.9382 22.5033 92.6442 22.2187 92.2709 22.032C91.8976 21.8453 91.4916 21.752 91.0529 21.752C90.3529 21.752 89.7649 21.9713 89.2889 22.41C88.8129 22.8393 88.5562 23.474 88.5189 24.314H93.4329ZM97.6612 22.368C97.9132 21.836 98.2819 21.4253 98.7672 21.136C99.2526 20.8373 99.8312 20.688 100.503 20.688V22.074H100.111C99.3926 22.074 98.8046 22.2607 98.3472 22.634C97.8899 22.998 97.6612 23.6047 97.6612 24.454V28.5H96.3872V20.814H97.6612V22.368ZM104.91 20.716C105.657 20.716 106.287 20.9027 106.8 21.276C107.323 21.6493 107.687 22.1487 107.892 22.774V20.814H109.166V28.5H107.892V26.54C107.687 27.1653 107.323 27.6647 106.8 28.038C106.287 28.4113 105.657 28.598 104.91 28.598C104.229 28.598 103.622 28.4393 103.09 28.122C102.558 27.8047 102.138 27.352 101.83 26.764C101.532 26.1667 101.382 25.4667 101.382 24.664C101.382 23.8613 101.532 23.1613 101.83 22.564C102.138 21.9667 102.558 21.5093 103.09 21.192C103.622 20.8747 104.229 20.716 104.91 20.716ZM105.274 21.85C104.49 21.85 103.86 22.102 103.384 22.606C102.918 23.1007 102.684 23.7867 102.684 24.664C102.684 25.5413 102.918 26.232 103.384 26.736C103.86 27.2307 104.49 27.478 105.274 27.478C105.778 27.478 106.226 27.3613 106.618 27.128C107.02 26.8947 107.332 26.568 107.556 26.148C107.78 25.7187 107.892 25.224 107.892 24.664C107.892 24.104 107.78 23.6093 107.556 23.18C107.332 22.7507 107.02 22.424 106.618 22.2C106.226 21.9667 105.778 21.85 105.274 21.85ZM112.468 18.14V28.5H111.194V18.14H112.468Z" fill="#62618F"/>
<defs>
<clipPath id="clip0_3_13">
<rect width="32" height="32" fill="white" transform="translate(16 8)"/>
</clipPath>
</defs>
</svg>
