<svg width="228" height="48" viewBox="0 0 228 48" fill="none" xmlns="http://www.w3.org/2000/svg">
<g clip-path="url(#clip0_3_58)">
<path d="M47.3333 14.6667H28.6667C27.1939 14.6667 26 15.8606 26 17.3333V30.6667C26 32.1394 27.1939 33.3333 28.6667 33.3333H47.3333C48.8061 33.3333 50 32.1394 50 30.6667V17.3333C50 15.8606 48.8061 14.6667 47.3333 14.6667Z" stroke="#62618F" stroke-width="2" stroke-linecap="round" stroke-linejoin="round"/>
<path d="M26 17.3333L38 25.3333L50 17.3333" stroke="#62618F" stroke-width="2" stroke-linecap="round" stroke-linejoin="round"/>
</g>
<path d="M66.296 18.63V28.5H65.022V18.63H66.296ZM72.3903 20.688C73.2863 20.688 74.0096 20.9773 74.5603 21.556C75.1109 22.1253 75.3863 22.9513 75.3863 24.034V28.5H74.1123V24.146C74.1123 23.3807 73.9163 22.7927 73.5243 22.382C73.1323 21.9713 72.6003 21.766 71.9283 21.766C71.2283 21.766 70.6683 21.9947 70.2483 22.452C69.8283 22.9 69.6183 23.558 69.6183 24.426V28.5H68.3443V20.814H69.6183V22.634C69.8143 22.0087 70.1596 21.528 70.6543 21.192C71.1583 20.856 71.7369 20.688 72.3903 20.688ZM80.3224 27.142L82.7024 20.814H84.0744L81.0644 28.5H79.5524L76.5424 20.814H77.9144L80.3224 27.142ZM85.1007 18.56C85.1007 18.3267 85.1801 18.14 85.3387 18C85.4974 17.8507 85.7074 17.776 85.9687 17.776C86.2301 17.776 86.4401 17.8507 86.5987 18C86.7574 18.14 86.8367 18.3267 86.8367 18.56C86.8367 18.7933 86.7574 18.9847 86.5987 19.134C86.4401 19.274 86.2301 19.344 85.9687 19.344C85.7074 19.344 85.4974 19.274 85.3387 19.134C85.1801 18.9847 85.1007 18.7933 85.1007 18.56ZM86.5987 20.814V28.5H85.3247V20.814H86.5987ZM92.315 27.38V28.5H91.363C90.579 28.5 89.991 28.3133 89.599 27.94C89.2163 27.5667 89.025 26.9413 89.025 26.064V21.92H87.877V20.814H89.025V18.896H90.313V20.814H92.301V21.92H90.313V26.092C90.313 26.5867 90.4017 26.9273 90.579 27.114C90.7657 27.2913 91.083 27.38 91.531 27.38H92.315ZM97.0197 20.716C97.7663 20.716 98.3963 20.9027 98.9097 21.276C99.4323 21.6493 99.7963 22.1487 100.002 22.774V20.814H101.276V28.5H100.002V26.54C99.7963 27.1653 99.4323 27.6647 98.9097 28.038C98.3963 28.4113 97.7663 28.598 97.0197 28.598C96.3383 28.598 95.7317 28.4393 95.1997 28.122C94.6677 27.8047 94.2477 27.352 93.9397 26.764C93.641 26.1667 93.4917 25.4667 93.4917 24.664C93.4917 23.8613 93.641 23.1613 93.9397 22.564C94.2477 21.9667 94.6677 21.5093 95.1997 21.192C95.7317 20.8747 96.3383 20.716 97.0197 20.716ZM97.3837 21.85C96.5997 21.85 95.9697 22.102 95.4937 22.606C95.027 23.1007 94.7937 23.7867 94.7937 24.664C94.7937 25.5413 95.027 26.232 95.4937 26.736C95.9697 27.2307 96.5997 27.478 97.3837 27.478C97.8877 27.478 98.3357 27.3613 98.7277 27.128C99.129 26.8947 99.4417 26.568 99.6657 26.148C99.8897 25.7187 100.002 25.224 100.002 24.664C100.002 24.104 99.8897 23.6093 99.6657 23.18C99.4417 22.7507 99.129 22.424 98.7277 22.2C98.3357 21.9667 97.8877 21.85 97.3837 21.85ZM106.971 27.38V28.5H106.019C105.235 28.5 104.647 28.3133 104.255 27.94C103.873 27.5667 103.681 26.9413 103.681 26.064V21.92H102.533V20.814H103.681V18.896H104.969V20.814H106.957V21.92H104.969V26.092C104.969 26.5867 105.058 26.9273 105.235 27.114C105.422 27.2913 105.739 27.38 106.187 27.38H106.971ZM108.302 18.56C108.302 18.3267 108.381 18.14 108.54 18C108.699 17.8507 108.909 17.776 109.17 17.776C109.431 17.776 109.641 17.8507 109.8 18C109.959 18.14 110.038 18.3267 110.038 18.56C110.038 18.7933 109.959 18.9847 109.8 19.134C109.641 19.274 109.431 19.344 109.17 19.344C108.909 19.344 108.699 19.274 108.54 19.134C108.381 18.9847 108.302 18.7933 108.302 18.56ZM109.8 20.814V28.5H108.526V20.814H109.8ZM115.334 20.716C116.072 20.716 116.73 20.8747 117.308 21.192C117.896 21.5093 118.354 21.9667 118.68 22.564C119.016 23.1613 119.184 23.8613 119.184 24.664C119.184 25.4667 119.016 26.1667 118.68 26.764C118.354 27.352 117.896 27.8047 117.308 28.122C116.73 28.4393 116.072 28.598 115.334 28.598C114.597 28.598 113.934 28.4393 113.346 28.122C112.768 27.8047 112.31 27.352 111.974 26.764C111.638 26.1667 111.47 25.4667 111.47 24.664C111.47 23.8613 111.638 23.1613 111.974 22.564C112.31 21.9667 112.768 21.5093 113.346 21.192C113.934 20.8747 114.597 20.716 115.334 20.716ZM115.334 21.836C114.877 21.836 114.452 21.9387 114.06 22.144C113.678 22.3493 113.365 22.6667 113.122 23.096C112.889 23.516 112.772 24.0387 112.772 24.664C112.772 25.28 112.889 25.8027 113.122 26.232C113.365 26.652 113.678 26.9647 114.06 27.17C114.452 27.3753 114.877 27.478 115.334 27.478C115.792 27.478 116.212 27.3753 116.594 27.17C116.986 26.9647 117.299 26.652 117.532 26.232C117.775 25.8027 117.896 25.28 117.896 24.664C117.896 24.0387 117.775 23.516 117.532 23.096C117.299 22.6667 116.986 22.3493 116.594 22.144C116.212 21.9387 115.792 21.836 115.334 21.836ZM124.89 20.688C125.786 20.688 126.51 20.9773 127.06 21.556C127.611 22.1253 127.886 22.9513 127.886 24.034V28.5H126.612V24.146C126.612 23.3807 126.416 22.7927 126.024 22.382C125.632 21.9713 125.1 21.766 124.428 21.766C123.728 21.766 123.168 21.9947 122.748 22.452C122.328 22.9 122.118 23.558 122.118 24.426V28.5H120.844V20.814H122.118V22.634C122.314 22.0087 122.66 21.528 123.154 21.192C123.658 20.856 124.237 20.688 124.89 20.688ZM132.248 20.716C133.116 20.716 133.812 20.9447 134.334 21.402C134.866 21.85 135.188 22.4567 135.3 23.222H134.082C134.026 22.7647 133.835 22.3913 133.508 22.102C133.191 21.8033 132.762 21.654 132.22 21.654C131.763 21.654 131.404 21.766 131.142 21.99C130.89 22.2047 130.764 22.4987 130.764 22.872C130.764 23.152 130.848 23.3807 131.016 23.558C131.194 23.726 131.408 23.8567 131.66 23.95C131.922 24.034 132.276 24.1273 132.724 24.23C133.294 24.3607 133.751 24.496 134.096 24.636C134.451 24.7667 134.75 24.9813 134.992 25.28C135.244 25.5787 135.37 25.98 135.37 26.484C135.37 27.1093 135.132 27.618 134.656 28.01C134.19 28.402 133.564 28.598 132.78 28.598C131.866 28.598 131.119 28.3787 130.54 27.94C129.962 27.5013 129.621 26.89 129.518 26.106H130.75C130.797 26.5727 130.998 26.9507 131.352 27.24C131.716 27.5293 132.192 27.674 132.78 27.674C133.219 27.674 133.56 27.562 133.802 27.338C134.054 27.114 134.18 26.82 134.18 26.456C134.18 26.1573 134.092 25.9193 133.914 25.742C133.737 25.5647 133.518 25.4293 133.256 25.336C132.995 25.2427 132.636 25.1447 132.178 25.042C131.609 24.9113 131.152 24.7807 130.806 24.65C130.47 24.5193 130.181 24.314 129.938 24.034C129.705 23.7447 129.588 23.3573 129.588 22.872C129.588 22.228 129.826 21.71 130.302 21.318C130.778 20.9167 131.427 20.716 132.248 20.716Z" fill="#62618F"/>
<defs>
<clipPath id="clip0_3_58">
<rect width="32" height="32" fill="white" transform="translate(22 8)"/>
</clipPath>
</defs>
</svg>
