<svg width="254" height="48" viewBox="0 0 254 48" fill="none" xmlns="http://www.w3.org/2000/svg">
<g clip-path="url(#clip0_3_132)">
<path d="M34.6667 18.6666V16C34.6667 15.2927 34.3857 14.6145 33.8856 14.1144C33.3855 13.6143 32.7072 13.3333 32 13.3333H22.6667C21.9594 13.3333 21.2811 13.6143 20.781 14.1144C20.281 14.6145 20 15.2927 20 16V32C20 32.7072 20.281 33.3855 20.781 33.8856C21.2811 34.3857 21.9594 34.6666 22.6667 34.6666H32C32.7072 34.6666 33.3855 34.3857 33.8856 33.8856C34.3857 33.3855 34.6667 32.7072 34.6667 32V29.3333" stroke="#62618F" stroke-width="2" stroke-linecap="round" stroke-linejoin="round"/>
<path d="M25.3333 24H44M44 24L40 20M44 24L40 28" stroke="#62618F" stroke-width="2" stroke-linecap="round" stroke-linejoin="round"/>
</g>
<path d="M60.296 27.506H63.796V28.5H59.022V18.63H60.296V27.506ZM68.5783 20.716C69.3156 20.716 69.9736 20.8747 70.5523 21.192C71.1403 21.5093 71.5976 21.9667 71.9243 22.564C72.2603 23.1613 72.4283 23.8613 72.4283 24.664C72.4283 25.4667 72.2603 26.1667 71.9243 26.764C71.5976 27.352 71.1403 27.8047 70.5523 28.122C69.9736 28.4393 69.3156 28.598 68.5783 28.598C67.841 28.598 67.1783 28.4393 66.5903 28.122C66.0116 27.8047 65.5543 27.352 65.2183 26.764C64.8823 26.1667 64.7143 25.4667 64.7143 24.664C64.7143 23.8613 64.8823 23.1613 65.2183 22.564C65.5543 21.9667 66.0116 21.5093 66.5903 21.192C67.1783 20.8747 67.841 20.716 68.5783 20.716ZM68.5783 21.836C68.121 21.836 67.6963 21.9387 67.3043 22.144C66.9216 22.3493 66.609 22.6667 66.3663 23.096C66.133 23.516 66.0163 24.0387 66.0163 24.664C66.0163 25.28 66.133 25.8027 66.3663 26.232C66.609 26.652 66.9216 26.9647 67.3043 27.17C67.6963 27.3753 68.121 27.478 68.5783 27.478C69.0356 27.478 69.4556 27.3753 69.8383 27.17C70.2303 26.9647 70.543 26.652 70.7763 26.232C71.019 25.8027 71.1403 25.28 71.1403 24.664C71.1403 24.0387 71.019 23.516 70.7763 23.096C70.543 22.6667 70.2303 22.3493 69.8383 22.144C69.4556 21.9387 69.0356 21.836 68.5783 21.836ZM77.2384 20.716C77.9851 20.716 78.6151 20.9027 79.1284 21.276C79.6511 21.6493 80.0151 22.1487 80.2204 22.774V20.814H81.4944V28.626C81.4944 29.3353 81.3451 29.9653 81.0464 30.516C80.7477 31.0667 80.3277 31.496 79.7864 31.804C79.2451 32.112 78.6151 32.266 77.8964 32.266C76.8604 32.266 76.0157 32.014 75.3624 31.51C74.7091 31.0153 74.2937 30.3433 74.1164 29.494H75.3764C75.5257 30.0073 75.8057 30.4087 76.2164 30.698C76.6364 30.9967 77.1731 31.146 77.8264 31.146C78.5171 31.146 79.0864 30.922 79.5344 30.474C79.9917 30.0353 80.2204 29.4193 80.2204 28.626V26.54C80.0151 27.1653 79.6511 27.6647 79.1284 28.038C78.6151 28.4113 77.9851 28.598 77.2384 28.598C76.5571 28.598 75.9504 28.4393 75.4184 28.122C74.8864 27.8047 74.4664 27.352 74.1584 26.764C73.8597 26.1667 73.7104 25.4667 73.7104 24.664C73.7104 23.8613 73.8597 23.1613 74.1584 22.564C74.4664 21.9667 74.8864 21.5093 75.4184 21.192C75.9504 20.8747 76.5571 20.716 77.2384 20.716ZM77.6024 21.85C76.8184 21.85 76.1884 22.102 75.7124 22.606C75.2457 23.1007 75.0124 23.7867 75.0124 24.664C75.0124 25.5413 75.2457 26.232 75.7124 26.736C76.1884 27.2307 76.8184 27.478 77.6024 27.478C78.1064 27.478 78.5544 27.3613 78.9464 27.128C79.3477 26.8947 79.6604 26.568 79.8844 26.148C80.1084 25.7187 80.2204 25.224 80.2204 24.664C80.2204 24.104 80.1084 23.6093 79.8844 23.18C79.6604 22.7507 79.3477 22.424 78.9464 22.2C78.5544 21.9667 78.1064 21.85 77.6024 21.85ZM90.467 20.716C91.2043 20.716 91.8623 20.8747 92.441 21.192C93.029 21.5093 93.4863 21.9667 93.813 22.564C94.149 23.1613 94.317 23.8613 94.317 24.664C94.317 25.4667 94.149 26.1667 93.813 26.764C93.4863 27.352 93.029 27.8047 92.441 28.122C91.8623 28.4393 91.2043 28.598 90.467 28.598C89.7297 28.598 89.067 28.4393 88.479 28.122C87.9003 27.8047 87.443 27.352 87.107 26.764C86.771 26.1667 86.603 25.4667 86.603 24.664C86.603 23.8613 86.771 23.1613 87.107 22.564C87.443 21.9667 87.9003 21.5093 88.479 21.192C89.067 20.8747 89.7297 20.716 90.467 20.716ZM90.467 21.836C90.0097 21.836 89.585 21.9387 89.193 22.144C88.8103 22.3493 88.4977 22.6667 88.255 23.096C88.0217 23.516 87.905 24.0387 87.905 24.664C87.905 25.28 88.0217 25.8027 88.255 26.232C88.4977 26.652 88.8103 26.9647 89.193 27.17C89.585 27.3753 90.0097 27.478 90.467 27.478C90.9243 27.478 91.3443 27.3753 91.727 27.17C92.119 26.9647 92.4317 26.652 92.665 26.232C92.9077 25.8027 93.029 25.28 93.029 24.664C93.029 24.0387 92.9077 23.516 92.665 23.096C92.4317 22.6667 92.119 22.3493 91.727 22.144C91.3443 21.9387 90.9243 21.836 90.467 21.836ZM102.809 20.814V28.5H101.535V26.694C101.339 27.3193 100.989 27.8 100.485 28.136C99.9904 28.4627 99.4117 28.626 98.7491 28.626C97.8624 28.626 97.1437 28.3413 96.5931 27.772C96.0424 27.1933 95.7671 26.3673 95.7671 25.294V20.814H97.0411V25.168C97.0411 25.9333 97.2371 26.526 97.6291 26.946C98.0211 27.3567 98.5531 27.562 99.2251 27.562C99.9251 27.562 100.485 27.338 100.905 26.89C101.325 26.4327 101.535 25.77 101.535 24.902V20.814H102.809ZM108.518 27.38V28.5H107.566C106.782 28.5 106.194 28.3133 105.802 27.94C105.419 27.5667 105.228 26.9413 105.228 26.064V21.92H104.08V20.814H105.228V18.896H106.516V20.814H108.504V21.92H106.516V26.092C106.516 26.5867 106.605 26.9273 106.782 27.114C106.969 27.2913 107.286 27.38 107.734 27.38H108.518Z" fill="#62618F"/>
<defs>
<clipPath id="clip0_3_132">
<rect width="32" height="32" fill="white" transform="translate(16 8)"/>
</clipPath>
</defs>
</svg>
