<svg width="228" height="48" viewBox="0 0 228 48" fill="none" xmlns="http://www.w3.org/2000/svg">
<g clip-path="url(#clip0_3_42)">
<path d="M44.6667 22.6667H31.3333C29.8606 22.6667 28.6667 23.8606 28.6667 25.3333V33.3333C28.6667 34.8061 29.8606 36 31.3333 36H44.6667C46.1394 36 47.3333 34.8061 47.3333 33.3333V25.3333C47.3333 23.8606 46.1394 22.6667 44.6667 22.6667Z" stroke="#62618F" stroke-width="2" stroke-linecap="round" stroke-linejoin="round"/>
<path d="M38 30.6667C38.7364 30.6667 39.3333 30.0697 39.3333 29.3333C39.3333 28.597 38.7364 28 38 28C37.2636 28 36.6667 28.597 36.6667 29.3333C36.6667 30.0697 37.2636 30.6667 38 30.6667Z" stroke="#62618F" stroke-width="2" stroke-linecap="round" stroke-linejoin="round"/>
<path d="M32.6667 22.6667V17.3333C32.6667 15.9188 33.2286 14.5623 34.2288 13.5621C35.229 12.5619 36.5855 12 38 12C39.4145 12 40.771 12.5619 41.7712 13.5621C42.7714 14.5623 43.3333 15.9188 43.3333 17.3333V22.6667" stroke="#62618F" stroke-width="2" stroke-linecap="round" stroke-linejoin="round"/>
</g>
<path d="M66.296 24.524V28.5H65.022V18.63H68.158C69.2873 18.63 70.132 18.896 70.692 19.428C71.252 19.9507 71.532 20.6693 71.532 21.584C71.532 22.508 71.2427 23.2313 70.664 23.754C70.0853 24.2673 69.25 24.524 68.158 24.524H66.296ZM68.046 23.46C68.8207 23.46 69.376 23.2967 69.712 22.97C70.0573 22.6433 70.23 22.1813 70.23 21.584C70.23 20.968 70.0573 20.5013 69.712 20.184C69.376 19.8573 68.8207 19.694 68.046 19.694H66.296V23.46H68.046ZM76.17 20.716C76.9167 20.716 77.5467 20.9027 78.06 21.276C78.5827 21.6493 78.9467 22.1487 79.152 22.774V20.814H80.426V28.5H79.152V26.54C78.9467 27.1653 78.5827 27.6647 78.06 28.038C77.5467 28.4113 76.9167 28.598 76.17 28.598C75.4887 28.598 74.882 28.4393 74.35 28.122C73.818 27.8047 73.398 27.352 73.09 26.764C72.7914 26.1667 72.642 25.4667 72.642 24.664C72.642 23.8613 72.7914 23.1613 73.09 22.564C73.398 21.9667 73.818 21.5093 74.35 21.192C74.882 20.8747 75.4887 20.716 76.17 20.716ZM76.534 21.85C75.75 21.85 75.12 22.102 74.644 22.606C74.1774 23.1007 73.944 23.7867 73.944 24.664C73.944 25.5413 74.1774 26.232 74.644 26.736C75.12 27.2307 75.75 27.478 76.534 27.478C77.038 27.478 77.486 27.3613 77.878 27.128C78.2794 26.8947 78.592 26.568 78.816 26.148C79.04 25.7187 79.152 25.224 79.152 24.664C79.152 24.104 79.04 23.6093 78.816 23.18C78.592 22.7507 78.2794 22.424 77.878 22.2C77.486 21.9667 77.038 21.85 76.534 21.85ZM84.8616 20.716C85.7296 20.716 86.425 20.9447 86.9476 21.402C87.4796 21.85 87.8016 22.4567 87.9136 23.222H86.6956C86.6396 22.7647 86.4483 22.3913 86.1216 22.102C85.8043 21.8033 85.375 21.654 84.8336 21.654C84.3763 21.654 84.017 21.766 83.7556 21.99C83.5036 22.2047 83.3776 22.4987 83.3776 22.872C83.3776 23.152 83.4616 23.3807 83.6296 23.558C83.807 23.726 84.0216 23.8567 84.2736 23.95C84.535 24.034 84.8896 24.1273 85.3376 24.23C85.907 24.3607 86.3643 24.496 86.7096 24.636C87.0643 24.7667 87.363 24.9813 87.6056 25.28C87.8576 25.5787 87.9836 25.98 87.9836 26.484C87.9836 27.1093 87.7456 27.618 87.2696 28.01C86.803 28.402 86.1776 28.598 85.3936 28.598C84.479 28.598 83.7323 28.3787 83.1536 27.94C82.575 27.5013 82.2343 26.89 82.1316 26.106H83.3636C83.4103 26.5727 83.611 26.9507 83.9656 27.24C84.3296 27.5293 84.8056 27.674 85.3936 27.674C85.8323 27.674 86.173 27.562 86.4156 27.338C86.6676 27.114 86.7936 26.82 86.7936 26.456C86.7936 26.1573 86.705 25.9193 86.5276 25.742C86.3503 25.5647 86.131 25.4293 85.8696 25.336C85.6083 25.2427 85.249 25.1447 84.7916 25.042C84.2223 24.9113 83.765 24.7807 83.4196 24.65C83.0836 24.5193 82.7943 24.314 82.5516 24.034C82.3183 23.7447 82.2016 23.3573 82.2016 22.872C82.2016 22.228 82.4396 21.71 82.9156 21.318C83.3916 20.9167 84.0403 20.716 84.8616 20.716ZM92.0941 20.716C92.9621 20.716 93.6574 20.9447 94.1801 21.402C94.7121 21.85 95.0341 22.4567 95.1461 23.222H93.9281C93.8721 22.7647 93.6807 22.3913 93.3541 22.102C93.0367 21.8033 92.6074 21.654 92.0661 21.654C91.6087 21.654 91.2494 21.766 90.9881 21.99C90.7361 22.2047 90.6101 22.4987 90.6101 22.872C90.6101 23.152 90.6941 23.3807 90.8621 23.558C91.0394 23.726 91.2541 23.8567 91.5061 23.95C91.7674 24.034 92.1221 24.1273 92.5701 24.23C93.1394 24.3607 93.5967 24.496 93.9421 24.636C94.2967 24.7667 94.5954 24.9813 94.8381 25.28C95.0901 25.5787 95.2161 25.98 95.2161 26.484C95.2161 27.1093 94.9781 27.618 94.5021 28.01C94.0354 28.402 93.4101 28.598 92.6261 28.598C91.7114 28.598 90.9647 28.3787 90.3861 27.94C89.8074 27.5013 89.4667 26.89 89.3641 26.106H90.5961C90.6427 26.5727 90.8434 26.9507 91.1981 27.24C91.5621 27.5293 92.0381 27.674 92.6261 27.674C93.0647 27.674 93.4054 27.562 93.6481 27.338C93.9001 27.114 94.0261 26.82 94.0261 26.456C94.0261 26.1573 93.9374 25.9193 93.7601 25.742C93.5827 25.5647 93.3634 25.4293 93.1021 25.336C92.8407 25.2427 92.4814 25.1447 92.0241 25.042C91.4547 24.9113 90.9974 24.7807 90.6521 24.65C90.3161 24.5193 90.0267 24.314 89.7841 24.034C89.5507 23.7447 89.4341 23.3573 89.4341 22.872C89.4341 22.228 89.6721 21.71 90.1481 21.318C90.6241 20.9167 91.2727 20.716 92.0941 20.716ZM107.474 20.814L105.262 28.5H103.89L101.776 22.242L99.6485 28.5H98.2625L96.0785 20.814H97.3665L99.0045 27.282L101.132 20.814H102.462L104.604 27.268L106.256 20.814H107.474ZM112.149 20.716C112.886 20.716 113.544 20.8747 114.123 21.192C114.711 21.5093 115.168 21.9667 115.495 22.564C115.831 23.1613 115.999 23.8613 115.999 24.664C115.999 25.4667 115.831 26.1667 115.495 26.764C115.168 27.352 114.711 27.8047 114.123 28.122C113.544 28.4393 112.886 28.598 112.149 28.598C111.411 28.598 110.749 28.4393 110.161 28.122C109.582 27.8047 109.125 27.352 108.789 26.764C108.453 26.1667 108.285 25.4667 108.285 24.664C108.285 23.8613 108.453 23.1613 108.789 22.564C109.125 21.9667 109.582 21.5093 110.161 21.192C110.749 20.8747 111.411 20.716 112.149 20.716ZM112.149 21.836C111.691 21.836 111.267 21.9387 110.875 22.144C110.492 22.3493 110.179 22.6667 109.937 23.096C109.703 23.516 109.587 24.0387 109.587 24.664C109.587 25.28 109.703 25.8027 109.937 26.232C110.179 26.652 110.492 26.9647 110.875 27.17C111.267 27.3753 111.691 27.478 112.149 27.478C112.606 27.478 113.026 27.3753 113.409 27.17C113.801 26.9647 114.113 26.652 114.347 26.232C114.589 25.8027 114.711 25.28 114.711 24.664C114.711 24.0387 114.589 23.516 114.347 23.096C114.113 22.6667 113.801 22.3493 113.409 22.144C113.026 21.9387 112.606 21.836 112.149 21.836ZM118.933 22.368C119.185 21.836 119.553 21.4253 120.039 21.136C120.524 20.8373 121.103 20.688 121.775 20.688V22.074H121.383C120.664 22.074 120.076 22.2607 119.619 22.634C119.161 22.998 118.933 23.6047 118.933 24.454V28.5H117.659V20.814H118.933V22.368ZM126.182 20.716C126.928 20.716 127.558 20.9027 128.072 21.276C128.594 21.6493 128.958 22.1487 129.164 22.774V18.14H130.438V28.5H129.164V26.54C128.958 27.1653 128.594 27.6647 128.072 28.038C127.558 28.4113 126.928 28.598 126.182 28.598C125.5 28.598 124.894 28.4393 124.362 28.122C123.83 27.8047 123.41 27.352 123.102 26.764C122.803 26.1667 122.654 25.4667 122.654 24.664C122.654 23.8613 122.803 23.1613 123.102 22.564C123.41 21.9667 123.83 21.5093 124.362 21.192C124.894 20.8747 125.5 20.716 126.182 20.716ZM126.546 21.85C125.762 21.85 125.132 22.102 124.656 22.606C124.189 23.1007 123.956 23.7867 123.956 24.664C123.956 25.5413 124.189 26.232 124.656 26.736C125.132 27.2307 125.762 27.478 126.546 27.478C127.05 27.478 127.498 27.3613 127.89 27.128C128.291 26.8947 128.604 26.568 128.828 26.148C129.052 25.7187 129.164 25.224 129.164 24.664C129.164 24.104 129.052 23.6093 128.828 23.18C128.604 22.7507 128.291 22.424 127.89 22.2C127.498 21.9667 127.05 21.85 126.546 21.85Z" fill="#62618F"/>
<defs>
<clipPath id="clip0_3_42">
<rect width="32" height="32" fill="white" transform="translate(22 8)"/>
</clipPath>
</defs>
</svg>
